<?xml version="1.0" encoding="utf-8"?>
<!-- Generator: Adobe Illustrator 16.0.0, SVG Export Plug-In . SVG Version: 6.00 Build 0)  -->
<!DOCTYPE svg PUBLIC "-//W3C//DTD SVG 1.1//EN" "http://www.w3.org/Graphics/SVG/1.1/DTD/svg11.dtd">
<svg version="1.1" id="Capa_1" xmlns="http://www.w3.org/2000/svg" xmlns:xlink="http://www.w3.org/1999/xlink" x="0px" y="0px"
	 width="15px" height="15px" viewBox="0 0 15 15" enable-background="new 0 0 15 15" xml:space="preserve">
<g>
	<path d="M13.366,7c-0.106-0.122-0.252-0.2-0.417-0.227c-0.075-0.504-0.305-0.971-0.672-1.36c-0.485-0.515-1.132-0.799-1.823-0.8
		c-0.102-0.95-0.493-1.746-1.007-2.023C8.975,2.335,8.195,2.403,7.402,2.759C6.66,3.093,6.035,3.61,5.658,4.197
		C5.406,4.108,5.144,4.042,4.875,3.999c-0.855-0.141-1.632,0-2.018,0.364c-0.459,0.434-0.618,1.391-0.418,2.4H2.241
		c-0.511,0-0.786,0.382-0.786,0.741c0,0.362,0.27,0.729,0.786,0.729h10.59c0.464,0,0.714-0.379,0.714-0.736
		C13.545,7.31,13.481,7.133,13.366,7z M4.789,4.526c0.774,0.126,1.47,0.465,1.91,0.93c0.367,0.389,0.6,0.845,0.672,1.307H2.984
		c-0.187-0.841-0.09-1.7,0.24-2.012C3.48,4.509,4.106,4.417,4.789,4.526z M10.177,5.168h0.042c0.067,0,0.229-0.018,0.236-0.02
		c0.539,0,1.049,0.225,1.434,0.632c0.269,0.285,0.444,0.621,0.516,0.983H8.212c0.166-0.368,0.381-0.681,0.633-0.919
		C9.242,5.469,9.702,5.235,10.177,5.168z M6.158,4.411C6.484,3.94,7.004,3.524,7.622,3.247c0.623-0.28,1.265-0.353,1.571-0.187
		C9.5,3.226,9.833,3.822,9.923,4.67c-0.52,0.111-1.015,0.379-1.445,0.786C8.224,5.695,8.002,5.995,7.823,6.34
		C7.691,5.892,7.44,5.463,7.088,5.089C6.839,4.826,6.521,4.595,6.158,4.411z"/>
	<path fill="#030104" d="M7.486,12.743c6.245,0,4.229-3.778,5.455-4.274H2.027C3.298,8.941,1.241,12.743,7.486,12.743z"/>
</g>
</svg>
